<svg width="1024" height="768" viewBox="0 0 1024 768" fill="none" xmlns="http://www.w3.org/2000/svg">
<rect width="1024" height="768" fill="white"/>
<path d="M286.965 336H309.645V415.52H358.785V434H286.965V336ZM432.677 435.68C422.504 435.68 413.31 433.487 405.097 429.1C396.977 424.713 390.584 418.693 385.917 411.04C381.344 403.293 379.057 394.613 379.057 385C379.057 375.387 381.344 366.753 385.917 359.1C390.584 351.353 396.977 345.287 405.097 340.9C413.31 336.513 422.504 334.32 432.677 334.32C442.85 334.32 451.997 336.513 460.117 340.9C468.237 345.287 474.63 351.353 479.297 359.1C483.964 366.753 486.297 375.387 486.297 385C486.297 394.613 483.964 403.293 479.297 411.04C474.63 418.693 468.237 424.713 460.117 429.1C451.997 433.487 442.85 435.68 432.677 435.68ZM432.677 416.36C438.464 416.36 443.69 415.053 448.357 412.44C453.024 409.733 456.664 406 459.277 401.24C461.984 396.48 463.337 391.067 463.337 385C463.337 378.933 461.984 373.52 459.277 368.76C456.664 364 453.024 360.313 448.357 357.7C443.69 354.993 438.464 353.64 432.677 353.64C426.89 353.64 421.664 354.993 416.997 357.7C412.33 360.313 408.644 364 405.937 368.76C403.324 373.52 402.017 378.933 402.017 385C402.017 391.067 403.324 396.48 405.937 401.24C408.644 406 412.33 409.733 416.997 412.44C421.664 415.053 426.89 416.36 432.677 416.36ZM584.962 383.46H605.682V423.22C600.362 427.233 594.202 430.313 587.202 432.46C580.202 434.607 573.155 435.68 566.062 435.68C555.889 435.68 546.742 433.533 538.622 429.24C530.502 424.853 524.109 418.833 519.442 411.18C514.869 403.433 512.582 394.707 512.582 385C512.582 375.293 514.869 366.613 519.442 358.96C524.109 351.213 530.549 345.193 538.762 340.9C546.975 336.513 556.215 334.32 566.482 334.32C575.069 334.32 582.862 335.767 589.862 338.66C596.862 341.553 602.742 345.753 607.502 351.26L592.942 364.7C585.942 357.327 577.495 353.64 567.602 353.64C561.349 353.64 555.795 354.947 550.942 357.56C546.089 360.173 542.309 363.86 539.602 368.62C536.895 373.38 535.542 378.84 535.542 385C535.542 391.067 536.895 396.48 539.602 401.24C542.309 406 546.042 409.733 550.802 412.44C555.655 415.053 561.162 416.36 567.322 416.36C573.855 416.36 579.735 414.96 584.962 412.16V383.46ZM689.61 435.68C679.436 435.68 670.243 433.487 662.03 429.1C653.91 424.713 647.516 418.693 642.85 411.04C638.276 403.293 635.99 394.613 635.99 385C635.99 375.387 638.276 366.753 642.85 359.1C647.516 351.353 653.91 345.287 662.03 340.9C670.243 336.513 679.436 334.32 689.61 334.32C699.783 334.32 708.93 336.513 717.05 340.9C725.17 345.287 731.563 351.353 736.23 359.1C740.896 366.753 743.23 375.387 743.23 385C743.23 394.613 740.896 403.293 736.23 411.04C731.563 418.693 725.17 424.713 717.05 429.1C708.93 433.487 699.783 435.68 689.61 435.68ZM689.61 416.36C695.396 416.36 700.623 415.053 705.29 412.44C709.956 409.733 713.596 406 716.21 401.24C718.916 396.48 720.27 391.067 720.27 385C720.27 378.933 718.916 373.52 716.21 368.76C713.596 364 709.956 360.313 705.29 357.7C700.623 354.993 695.396 353.64 689.61 353.64C683.823 353.64 678.596 354.993 673.93 357.7C669.263 360.313 665.576 364 662.87 368.76C660.256 373.52 658.95 378.933 658.95 385C658.95 391.067 660.256 396.48 662.87 401.24C665.576 406 669.263 409.733 673.93 412.44C678.596 415.053 683.823 416.36 689.61 416.36Z" fill="#212121"/>
<rect x="20" y="60" width="30" height="6" fill="#212121"/>
<rect x="20" y="702" width="30" height="6" fill="#212121"/>
<rect x="34" y="66" width="2" height="636" fill="#212121"/>
<path d="M60.7637 377.363L55.2656 390H52.2871L57.7949 378.066H50.7246V375.781H60.7637V377.363ZM70.2363 375.635V377.959H69.9629C68.6868 377.979 67.6582 378.311 66.877 378.955C66.1022 379.6 65.6367 380.495 65.4805 381.641C66.2357 380.872 67.1895 380.488 68.3418 380.488C69.5788 380.488 70.5618 380.931 71.291 381.816C72.0202 382.702 72.3848 383.867 72.3848 385.312C72.3848 386.237 72.1829 387.074 71.7793 387.822C71.3822 388.571 70.8158 389.154 70.0801 389.57C69.3509 389.987 68.5241 390.195 67.5996 390.195C66.1022 390.195 64.8913 389.674 63.9668 388.633C63.0488 387.591 62.5898 386.201 62.5898 384.463V383.447C62.5898 381.904 62.8796 380.544 63.459 379.365C64.0449 378.18 64.8815 377.266 65.9688 376.621C67.0625 375.97 68.3288 375.641 69.7676 375.635H70.2363ZM67.4824 382.754C67.0267 382.754 66.6133 382.874 66.2422 383.115C65.8711 383.35 65.5977 383.662 65.4219 384.053V384.912C65.4219 385.856 65.6074 386.595 65.9785 387.129C66.3496 387.656 66.8704 387.92 67.541 387.92C68.1465 387.92 68.6348 387.682 69.0059 387.207C69.3835 386.725 69.5723 386.104 69.5723 385.342C69.5723 384.567 69.3835 383.942 69.0059 383.467C68.6283 382.992 68.1204 382.754 67.4824 382.754ZM83.332 379.561C83.332 380.251 83.1595 380.863 82.8145 381.396C82.4694 381.93 81.9941 382.357 81.3887 382.676C82.0788 383.008 82.6257 383.467 83.0293 384.053C83.4329 384.632 83.6348 385.316 83.6348 386.104C83.6348 387.367 83.2051 388.366 82.3457 389.102C81.4863 389.831 80.3177 390.195 78.8398 390.195C77.362 390.195 76.1901 389.827 75.3242 389.092C74.4583 388.356 74.0254 387.36 74.0254 386.104C74.0254 385.316 74.2272 384.629 74.6309 384.043C75.0345 383.457 75.5781 383.001 76.2617 382.676C75.6562 382.357 75.181 381.93 74.8359 381.396C74.4974 380.863 74.3281 380.251 74.3281 379.561C74.3281 378.35 74.7318 377.386 75.5391 376.67C76.3464 375.947 77.4434 375.586 78.8301 375.586C80.2103 375.586 81.304 375.944 82.1113 376.66C82.9251 377.37 83.332 378.337 83.332 379.561ZM80.8027 385.898C80.8027 385.28 80.6237 384.785 80.2656 384.414C79.9076 384.043 79.4258 383.857 78.8203 383.857C78.2214 383.857 77.7428 384.043 77.3848 384.414C77.0267 384.779 76.8477 385.273 76.8477 385.898C76.8477 386.504 77.0234 386.992 77.375 387.363C77.7266 387.734 78.2148 387.92 78.8398 387.92C79.4518 387.92 79.9303 387.741 80.2754 387.383C80.627 387.025 80.8027 386.53 80.8027 385.898ZM80.5098 379.697C80.5098 379.144 80.3633 378.701 80.0703 378.369C79.7773 378.031 79.3639 377.861 78.8301 377.861C78.3027 377.861 77.8926 378.024 77.5996 378.35C77.3066 378.675 77.1602 379.124 77.1602 379.697C77.1602 380.264 77.3066 380.719 77.5996 381.064C77.8926 381.41 78.306 381.582 78.8398 381.582C79.3737 381.582 79.7839 381.41 80.0703 381.064C80.3633 380.719 80.5098 380.264 80.5098 379.697ZM95.1777 384.814C95.1777 386.442 94.8066 387.747 94.0645 388.73C93.3288 389.707 92.3327 390.195 91.0762 390.195C90.0085 390.195 89.1458 389.824 88.4883 389.082V394.062H85.666V379.434H88.2832L88.3809 380.469C89.0645 379.648 89.9564 379.238 91.0566 379.238C92.3587 379.238 93.3711 379.72 94.0938 380.684C94.8164 381.647 95.1777 382.975 95.1777 384.668V384.814ZM92.3555 384.609C92.3555 383.626 92.1797 382.868 91.8281 382.334C91.4831 381.8 90.9785 381.533 90.3145 381.533C89.429 381.533 88.8203 381.872 88.4883 382.549V386.875C88.8333 387.572 89.4486 387.92 90.334 387.92C91.6816 387.92 92.3555 386.816 92.3555 384.609ZM100.803 382.588L102.58 379.434H105.598L102.59 384.609L105.725 390H102.697L100.812 386.68L98.9375 390H95.9004L99.0352 384.609L96.0371 379.434H99.0645L100.803 382.588Z" fill="#212121"/>
<rect x="60" y="718" width="6" height="30" fill="#212121"/>
<rect x="958" y="718" width="6" height="30" fill="#212121"/>
<rect x="66" y="732" width="892" height="2" fill="#212121"/>
<path d="M531.209 713H528.387V702.121L525.018 703.166V700.871L530.906 698.762H531.209V713ZM545.408 707.121C545.408 709.087 545.001 710.591 544.188 711.633C543.374 712.674 542.182 713.195 540.613 713.195C539.064 713.195 537.879 712.684 537.059 711.662C536.238 710.64 535.818 709.175 535.799 707.268V704.65C535.799 702.665 536.209 701.158 537.029 700.129C537.856 699.1 539.044 698.586 540.594 698.586C542.143 698.586 543.328 699.097 544.148 700.119C544.969 701.135 545.389 702.596 545.408 704.504V707.121ZM542.586 704.25C542.586 703.072 542.423 702.215 542.098 701.682C541.779 701.141 541.277 700.871 540.594 700.871C539.93 700.871 539.438 701.128 539.119 701.643C538.807 702.15 538.641 702.948 538.621 704.035V707.492C538.621 708.651 538.777 709.514 539.09 710.08C539.409 710.64 539.917 710.92 540.613 710.92C541.303 710.92 541.801 710.65 542.107 710.109C542.413 709.569 542.573 708.742 542.586 707.629V704.25ZM557.068 713H547.322V711.066L551.922 706.164C552.553 705.474 553.019 704.872 553.318 704.357C553.624 703.843 553.777 703.355 553.777 702.893C553.777 702.261 553.618 701.766 553.299 701.408C552.98 701.044 552.524 700.861 551.932 700.861C551.294 700.861 550.789 701.083 550.418 701.525C550.053 701.962 549.871 702.538 549.871 703.254H547.039C547.039 702.388 547.244 701.597 547.654 700.881C548.071 700.165 548.657 699.605 549.412 699.201C550.167 698.791 551.023 698.586 551.98 698.586C553.445 698.586 554.581 698.938 555.389 699.641C556.202 700.344 556.609 701.337 556.609 702.619C556.609 703.322 556.427 704.038 556.062 704.768C555.698 705.497 555.073 706.346 554.188 707.316L550.955 710.725H557.068V713ZM567.156 707.648H568.768V709.924H567.156V713H564.334V709.924H558.504L558.377 708.146L564.305 698.781H567.156V707.648ZM561.189 707.648H564.334V702.629L564.148 702.951L561.189 707.648ZM579.92 707.814C579.92 709.442 579.549 710.747 578.807 711.73C578.071 712.707 577.075 713.195 575.818 713.195C574.751 713.195 573.888 712.824 573.23 712.082V717.062H570.408V702.434H573.025L573.123 703.469C573.807 702.648 574.699 702.238 575.799 702.238C577.101 702.238 578.113 702.72 578.836 703.684C579.559 704.647 579.92 705.975 579.92 707.668V707.814ZM577.098 707.609C577.098 706.626 576.922 705.868 576.57 705.334C576.225 704.8 575.721 704.533 575.057 704.533C574.171 704.533 573.562 704.872 573.23 705.549V709.875C573.576 710.572 574.191 710.92 575.076 710.92C576.424 710.92 577.098 709.816 577.098 707.609ZM585.545 705.588L587.322 702.434H590.34L587.332 707.609L590.467 713H587.439L585.555 709.68L583.68 713H580.643L583.777 707.609L580.779 702.434H583.807L585.545 705.588Z" fill="#212121"/>
</svg>
